<svg width="382" height="118" viewBox="0 0 382 118" fill="none" xmlns="http://www.w3.org/2000/svg">
<path d="M7.176 13L5.317 10.335C5.239 10.3437 5.122 10.348 4.966 10.348H2.912V13H1.222V3.9H4.966C5.75467 3.9 6.43933 4.03 7.02 4.29C7.60933 4.55 8.06 4.92267 8.372 5.408C8.684 5.89333 8.84 6.46967 8.84 7.137C8.84 7.82167 8.671 8.411 8.333 8.905C8.00367 9.399 7.527 9.76733 6.903 10.01L8.996 13H7.176ZM7.137 7.137C7.137 6.55633 6.94633 6.11 6.565 5.798C6.18367 5.486 5.62467 5.33 4.888 5.33H2.912V8.957H4.888C5.62467 8.957 6.18367 8.801 6.565 8.489C6.94633 8.16833 7.137 7.71767 7.137 7.137ZM15.9438 13.13C14.6871 13.13 13.7078 12.779 13.0058 12.077C12.3038 11.3663 11.9528 10.3523 11.9528 9.035V3.9H13.6428V8.97C13.6428 10.7553 14.4141 11.648 15.9568 11.648C17.4908 11.648 18.2578 10.7553 18.2578 8.97V3.9H19.9218V9.035C19.9218 10.3523 19.5708 11.3663 18.8688 12.077C18.1755 12.779 17.2005 13.13 15.9438 13.13ZM26.4096 13.13C25.7076 13.13 25.0273 13.0303 24.3686 12.831C23.7186 12.6317 23.2029 12.3673 22.8216 12.038L23.4066 10.725C23.7793 11.0197 24.2343 11.2623 24.7716 11.453C25.3176 11.635 25.8636 11.726 26.4096 11.726C27.0856 11.726 27.5883 11.6177 27.9176 11.401C28.2556 11.1843 28.4246 10.8983 28.4246 10.543C28.4246 10.283 28.3293 10.0707 28.1386 9.906C27.9566 9.73267 27.7226 9.59833 27.4366 9.503C27.1506 9.40767 26.7606 9.29933 26.2666 9.178C25.5733 9.01333 25.0099 8.84867 24.5766 8.684C24.1519 8.51933 23.7836 8.26367 23.4716 7.917C23.1683 7.56167 23.0166 7.085 23.0166 6.487C23.0166 5.98433 23.1509 5.52933 23.4196 5.122C23.6969 4.706 24.1086 4.37667 24.6546 4.134C25.2093 3.89133 25.8853 3.77 26.6826 3.77C27.2373 3.77 27.7833 3.83933 28.3206 3.978C28.8579 4.11667 29.3216 4.316 29.7116 4.576L29.1786 5.889C28.7799 5.655 28.3639 5.47733 27.9306 5.356C27.4973 5.23467 27.0769 5.174 26.6696 5.174C26.0023 5.174 25.5039 5.28667 25.1746 5.512C24.8539 5.73733 24.6936 6.03633 24.6936 6.409C24.6936 6.669 24.7846 6.88133 24.9666 7.046C25.1573 7.21067 25.3956 7.34067 25.6816 7.436C25.9676 7.53133 26.3576 7.63967 26.8516 7.761C27.5276 7.917 28.0823 8.08167 28.5156 8.255C28.9489 8.41967 29.3173 8.67533 29.6206 9.022C29.9326 9.36867 30.0886 9.83667 30.0886 10.426C30.0886 10.9287 29.9499 11.3837 29.6726 11.791C29.4039 12.1983 28.9923 12.5233 28.4376 12.766C27.8829 13.0087 27.2069 13.13 26.4096 13.13ZM35.8854 13.13C35.1834 13.13 34.503 13.0303 33.8444 12.831C33.1944 12.6317 32.6787 12.3673 32.2974 12.038L32.8824 10.725C33.255 11.0197 33.71 11.2623 34.2474 11.453C34.7934 11.635 35.3394 11.726 35.8854 11.726C36.5614 11.726 37.064 11.6177 37.3934 11.401C37.7314 11.1843 37.9004 10.8983 37.9004 10.543C37.9004 10.283 37.805 10.0707 37.6144 9.906C37.4324 9.73267 37.1984 9.59833 36.9124 9.503C36.6264 9.40767 36.2364 9.29933 35.7424 9.178C35.049 9.01333 34.4857 8.84867 34.0524 8.684C33.6277 8.51933 33.2594 8.26367 32.9474 7.917C32.644 7.56167 32.4924 7.085 32.4924 6.487C32.4924 5.98433 32.6267 5.52933 32.8954 5.122C33.1727 4.706 33.5844 4.37667 34.1304 4.134C34.685 3.89133 35.361 3.77 36.1584 3.77C36.713 3.77 37.259 3.83933 37.7964 3.978C38.3337 4.11667 38.7974 4.316 39.1874 4.576L38.6544 5.889C38.2557 5.655 37.8397 5.47733 37.4064 5.356C36.973 5.23467 36.5527 5.174 36.1454 5.174C35.478 5.174 34.9797 5.28667 34.6504 5.512C34.3297 5.73733 34.1694 6.03633 34.1694 6.409C34.1694 6.669 34.2604 6.88133 34.4424 7.046C34.633 7.21067 34.8714 7.34067 35.1574 7.436C35.4434 7.53133 35.8334 7.63967 36.3274 7.761C37.0034 7.917 37.558 8.08167 37.9914 8.255C38.4247 8.41967 38.793 8.67533 39.0964 9.022C39.4084 9.36867 39.5644 9.83667 39.5644 10.426C39.5644 10.9287 39.4257 11.3837 39.1484 11.791C38.8797 12.1983 38.468 12.5233 37.9134 12.766C37.3587 13.0087 36.6827 13.13 35.8854 13.13ZM42.5402 3.9H44.2302V13H42.5402V3.9ZM53.8935 10.894H49.3435L48.4465 13H46.7045L50.7995 3.9H52.4635L56.5715 13H54.8035L53.8935 10.894ZM53.3345 9.568L51.6185 5.59L49.9155 9.568H53.3345ZM67.1148 3.9V13H65.7238L60.7058 6.838V13H59.0288V3.9H60.4198L65.4378 10.062V3.9H67.1148Z" fill="#434343"/>
<path d="M8.047 86.583V88H1.222V78.9H7.865V80.317H2.912V82.683H7.306V84.074H2.912V86.583H8.047ZM19.317 78.9V88H17.926L12.908 81.838V88H11.231V78.9H12.622L17.64 85.062V78.9H19.317ZM29.2694 83.346H30.8684V86.973C30.4004 87.3457 29.8544 87.6317 29.2304 87.831C28.6064 88.0303 27.9651 88.13 27.3064 88.13C26.3791 88.13 25.5427 87.9307 24.7974 87.532C24.0521 87.1247 23.4671 86.5657 23.0424 85.855C22.6177 85.1443 22.4054 84.3427 22.4054 83.45C22.4054 82.5573 22.6177 81.7557 23.0424 81.045C23.4671 80.3343 24.0521 79.7797 24.7974 79.381C25.5514 78.9737 26.3964 78.77 27.3324 78.77C28.0951 78.77 28.7884 78.8957 29.4124 79.147C30.0364 79.3983 30.5607 79.7667 30.9854 80.252L29.9194 81.292C29.2261 80.5987 28.3897 80.252 27.4104 80.252C26.7691 80.252 26.1971 80.3863 25.6944 80.655C25.2004 80.9237 24.8104 81.3007 24.5244 81.786C24.2471 82.2713 24.1084 82.826 24.1084 83.45C24.1084 84.0567 24.2471 84.6027 24.5244 85.088C24.8104 85.5733 25.2004 85.9547 25.6944 86.232C26.1971 86.5093 26.7647 86.648 27.3974 86.648C28.1081 86.648 28.7321 86.492 29.2694 86.18V83.346ZM34.3974 78.9H36.0874V86.57H40.8454V88H34.3974V78.9ZM43.4796 78.9H45.1696V88H43.4796V78.9ZM51.752 88.13C51.05 88.13 50.3697 88.0303 49.711 87.831C49.061 87.6317 48.5453 87.3673 48.164 87.038L48.749 85.725C49.1217 86.0197 49.5767 86.2623 50.114 86.453C50.66 86.635 51.206 86.726 51.752 86.726C52.428 86.726 52.9307 86.6177 53.26 86.401C53.598 86.1843 53.767 85.8983 53.767 85.543C53.767 85.283 53.6717 85.0707 53.481 84.906C53.299 84.7327 53.065 84.5983 52.779 84.503C52.493 84.4077 52.103 84.2993 51.609 84.178C50.9157 84.0133 50.3523 83.8487 49.919 83.684C49.4943 83.5193 49.126 83.2637 48.814 82.917C48.5107 82.5617 48.359 82.085 48.359 81.487C48.359 80.9843 48.4933 80.5293 48.762 80.122C49.0393 79.706 49.451 79.3767 49.997 79.134C50.5517 78.8913 51.2277 78.77 52.025 78.77C52.5797 78.77 53.1257 78.8393 53.663 78.978C54.2003 79.1167 54.664 79.316 55.054 79.576L54.521 80.889C54.1223 80.655 53.7063 80.4773 53.273 80.356C52.8397 80.2347 52.4193 80.174 52.012 80.174C51.3447 80.174 50.8463 80.2867 50.517 80.512C50.1963 80.7373 50.036 81.0363 50.036 81.409C50.036 81.669 50.127 81.8813 50.309 82.046C50.4997 82.2107 50.738 82.3407 51.024 82.436C51.31 82.5313 51.7 82.6397 52.194 82.761C52.87 82.917 53.4247 83.0817 53.858 83.255C54.2913 83.4197 54.6597 83.6753 54.963 84.022C55.275 84.3687 55.431 84.8367 55.431 85.426C55.431 85.9287 55.2923 86.3837 55.015 86.791C54.7463 87.1983 54.3347 87.5233 53.78 87.766C53.2253 88.0087 52.5493 88.13 51.752 88.13ZM66.4928 78.9V88H64.8028V84.1H60.0968V88H58.4068V78.9H60.0968V82.657H64.8028V78.9H66.4928Z" fill="#434343"/>
<rect x="1.5" y="28.5" width="379" height="14" rx="7" fill="#E3C5C3" stroke="#C6BBBB"/>
<rect x="0.5" y="103.5" width="129" height="14" rx="7" fill="#E3C5C3" stroke="#C6BBBB"/>
<rect x="0.5" y="103.5" width="379" height="14" rx="7" stroke="#C6BBBB"/>
<path d="M335.087 3.9V13H334.294L328.444 5.616V13H327.482V3.9H328.275L334.138 11.284V3.9H335.087ZM345.064 10.569H339.994L338.902 13H337.901L342.061 3.9H343.01L347.17 13H346.156L345.064 10.569ZM344.713 9.789L342.529 4.901L340.345 9.789H344.713ZM351.287 4.732H348.089V3.9H355.447V4.732H352.249V13H351.287V4.732ZM358.283 3.9H359.245V13H358.283V3.9ZM370.971 3.9L366.941 13H365.992L361.962 3.9H363.002L366.486 11.804L369.996 3.9H370.971ZM380.026 12.168V13H373.591V3.9H379.831V4.732H374.553V7.969H379.259V8.788H374.553V12.168H380.026Z" fill="#434343"/>
<path d="M233.888 78.9C235.049 78.9 235.959 79.1773 236.618 79.732C237.277 80.2867 237.606 81.0493 237.606 82.02C237.606 82.9907 237.277 83.7533 236.618 84.308C235.959 84.854 235.049 85.127 233.888 85.127H231.444V88H230.482V78.9H233.888ZM233.862 84.282C234.763 84.282 235.452 84.087 235.929 83.697C236.406 83.2983 236.644 82.7393 236.644 82.02C236.644 81.2833 236.406 80.72 235.929 80.33C235.452 79.9313 234.763 79.732 233.862 79.732H231.444V84.282H233.862ZM247.2 88L245.12 85.075C244.886 85.101 244.643 85.114 244.392 85.114H241.948V88H240.986V78.9H244.392C245.553 78.9 246.463 79.1773 247.122 79.732C247.781 80.2867 248.11 81.0493 248.11 82.02C248.11 82.7307 247.928 83.333 247.564 83.827C247.209 84.3123 246.697 84.6633 246.03 84.88L248.253 88H247.2ZM244.366 84.295C245.267 84.295 245.956 84.0957 246.433 83.697C246.91 83.2983 247.148 82.7393 247.148 82.02C247.148 81.2833 246.91 80.72 246.433 80.33C245.956 79.9313 245.267 79.732 244.366 79.732H241.948V84.295H244.366ZM258.116 87.168V88H251.681V78.9H257.921V79.732H252.643V82.969H257.349V83.788H252.643V87.168H258.116ZM260.721 84.074H264.127V84.88H260.721V84.074ZM267.687 78.9H268.649V88H267.687V78.9ZM280.515 78.9V88H279.722L273.872 80.616V88H272.91V78.9H273.703L279.566 86.284V78.9H280.515ZM286.553 79.732H283.355V78.9H290.713V79.732H287.515V88H286.553V79.732ZM299.985 87.168V88H293.55V78.9H299.79V79.732H294.512V82.969H299.218V83.788H294.512V87.168H299.985ZM309.76 88L307.68 85.075C307.446 85.101 307.203 85.114 306.952 85.114H304.508V88H303.546V78.9H306.952C308.113 78.9 309.023 79.1773 309.682 79.732C310.341 80.2867 310.67 81.0493 310.67 82.02C310.67 82.7307 310.488 83.333 310.124 83.827C309.769 84.3123 309.257 84.6633 308.59 84.88L310.813 88H309.76ZM306.926 84.295C307.827 84.295 308.516 84.0957 308.993 83.697C309.47 83.2983 309.708 82.7393 309.708 82.02C309.708 81.2833 309.47 80.72 308.993 80.33C308.516 79.9313 307.827 79.732 306.926 79.732H304.508V84.295H306.926ZM323.692 78.9V88H322.769V80.72L319.194 86.843H318.739L315.164 80.759V88H314.241V78.9H315.034L318.986 85.647L322.899 78.9H323.692ZM334.392 87.168V88H327.957V78.9H334.197V79.732H328.919V82.969H333.625V83.788H328.919V87.168H334.392ZM337.953 78.9H341.658C342.62 78.9 343.469 79.095 344.206 79.485C344.943 79.8663 345.515 80.4037 345.922 81.097C346.329 81.7817 346.533 82.566 346.533 83.45C346.533 84.334 346.329 85.1227 345.922 85.816C345.515 86.5007 344.943 87.038 344.206 87.428C343.469 87.8093 342.62 88 341.658 88H337.953V78.9ZM341.606 87.168C342.403 87.168 343.101 87.012 343.699 86.7C344.297 86.3793 344.761 85.9417 345.09 85.387C345.419 84.8237 345.584 84.178 345.584 83.45C345.584 82.722 345.419 82.0807 345.09 81.526C344.761 80.9627 344.297 80.525 343.699 80.213C343.101 79.8923 342.403 79.732 341.606 79.732H338.915V87.168H341.606ZM349.993 78.9H350.955V88H349.993V78.9ZM360.923 85.569H355.853L354.761 88H353.76L357.92 78.9H358.869L363.029 88H362.015L360.923 85.569ZM360.572 84.789L358.388 79.901L356.204 84.789H360.572ZM367.145 79.732H363.947V78.9H371.305V79.732H368.107V88H367.145V79.732ZM380.577 87.168V88H374.142V78.9H380.382V79.732H375.104V82.969H379.81V83.788H375.104V87.168H380.577Z" fill="#434343"/>
</svg>
