<svg width="73" height="26" viewBox="0 0 73 26" fill="none" xmlns="http://www.w3.org/2000/svg">
<path d="M1.19999 11.9V0.200012H7.19999C8.29999 0.200012 9.19999 0.300012 9.79999 0.500012C10.4 0.700012 10.9 1.10001 11.2 1.60001C11.6 2.20001 11.8 2.80001 11.7 3.50001C11.7 4.70001 11.2 5.70001 10.1 6.30001C9.79999 6.50001 9.39999 6.70001 8.89999 6.70001C9.19999 6.80001 9.59999 7.00001 9.89999 7.20001C10.1 7.40001 10.3 7.60001 10.5 7.80001C10.7 8.00001 10.9 8.30001 11 8.50001L12.8 11.9H8.59999L6.69999 8.30001C6.39999 7.90001 6.19999 7.60001 5.99999 7.40001C5.69999 7.20001 5.39999 7.10001 5.09999 7.10001H4.79999V11.8L1.19999 11.9ZM4.79999 4.90001H6.29999C6.59999 4.90001 6.89999 4.80001 7.29999 4.70001C7.49999 4.70001 7.69999 4.50001 7.89999 4.30001C8.29999 3.80001 8.19999 3.20001 7.79999 2.80001C7.49999 2.70001 6.99999 2.60001 6.39999 2.60001H4.79999V4.90001ZM0.399994 21.9L3.79999 21.7C3.89999 22.3 3.99999 22.7 4.29999 23C4.69999 23.5 5.19999 23.7 5.89999 23.7C6.39999 23.7 6.79999 23.6 7.09999 23.3C7.39999 23.1 7.49999 22.8 7.49999 22.5C7.49999 22.2 7.39999 21.9 7.09999 21.7C6.79999 21.5 6.19999 21.2 5.19999 21C3.59999 20.6 2.49999 20.2 1.79999 19.6C1.09999 19 0.799994 18.2 0.799994 17.3C0.799994 16.7 0.999994 16.1 1.29999 15.6C1.69999 15 2.19999 14.6 2.89999 14.3C3.59999 14 4.59999 13.8 5.79999 13.8C7.29999 13.8 8.39999 14.1 9.19999 14.6C9.99999 15.2 10.4 16 10.6 17.3L7.19999 17.5C7.09999 17 6.89999 16.6 6.59999 16.3C6.29999 16.1 5.89999 15.9 5.39999 15.9C4.99999 15.9 4.69999 16 4.49999 16.2C4.29999 16.4 4.19999 16.6 4.19999 16.9C4.19999 17.1 4.29999 17.3 4.49999 17.4C4.69999 17.6 5.09999 17.7 5.69999 17.8C7.29999 18.1 8.39999 18.5 9.09999 18.8C9.79999 19.2 10.3 19.6 10.6 20.1C10.9 20.6 11.1 21.2 11.1 21.8C11.1 22.5 10.9 23.3 10.5 23.9C10.1 24.5 9.49999 25 8.79999 25.3C7.89999 25.8 6.89999 26 5.79999 26C3.79999 26 2.39999 25.6 1.69999 24.8C0.899994 24.1 0.499994 23.1 0.399994 21.9Z" fill="#434343"/>
<path d="M17.7 21L20.9 22C20.7 22.8 20.4 23.6 19.9 24.2C19.5 24.8 18.9 25.2 18.2 25.5C17.5 25.8 16.7 26 15.6 26C14.3 26 13.3 25.8 12.5 25.5C11.7 25.1 11 24.5 10.4 23.6C9.8 22.7 9.5 21.5 9.5 20C9.5 18.1 10 16.6 11 15.5C12 14.4 13.5 13.9 15.4 13.9C16.9 13.9 18 14.2 18.9 14.8C19.7 15.4 20.4 16.3 20.8 17.5L17.6 18.2C17.5 17.9 17.4 17.7 17.2 17.4C17 17.1 16.8 16.9 16.5 16.8C16.2 16.7 15.9 16.6 15.5 16.6C14.7 16.6 14 16.9 13.6 17.6C13.3 18.1 13.1 18.9 13.1 19.9C13.1 21.2 13.3 22.1 13.7 22.6C14.1 23.1 14.6 23.3 15.4 23.3C16.1 23.3 16.6 23.1 17 22.7C17.3 22.3 17.6 21.7 17.7 21ZM25.1 14.1H28.7V18.2H32.6V14.1H36.2V25.8H32.6V21.1H28.7V25.8H25.1V14.1Z" fill="#434343"/>
<path d="M35.8 19.9C35.8 18 36.3 16.5 37.4 15.4C38.5 14.3 40 13.8 41.8 13.8C43.7 13.8 45.2 14.3 46.3 15.4C47.4 16.5 48 18 48 19.9C48 21.3 47.8 22.4 47.3 23.3C46.9 24.2 46.2 24.9 45.3 25.3C44.4 25.8 43.3 26 42 26C40.7 26 39.6 25.8 38.7 25.4C37.8 25 37.1 24.3 36.6 23.4C36.1 22.5 35.8 21.3 35.8 19.9ZM39.4 20C39.4 21.2 39.6 22 40.1 22.6C40.5 23.1 41.1 23.4 41.9 23.4C42.7 23.4 43.3 23.2 43.7 22.6C44.1 22.1 44.3 21.2 44.3 19.9C44.3 18.8 44.1 18 43.6 17.5C43.2 17 42.6 16.7 41.8 16.7C41.1 16.7 40.5 17 40 17.5C39.5 18 39.4 18.8 39.4 20Z" fill="#434343"/>
<path d="M63.4 14.1H67V22.9H72.6V25.8H63.3L63.4 14.1Z" fill="#434343"/>
<path d="M61.9 3.10002C59.6 0.100024 54.9 -0.0999759 51.2 2.60002C47.5 5.30002 46.5 10 48.8 13C51.1 16 55.8 16.2 59.5 13.5C63.1 10.7 64.2 6.00002 61.9 3.10002ZM59.3 13.2C57.6 14.5 55.6 15.2 53.6 15.1C51.7 15 50 14.2 49 12.8C48 11.4 47.6 9.60002 48.1 7.70002C48.6 5.80002 49.8 4.00002 51.5 2.80002C53.2 1.50002 55.2 0.800024 57.2 0.900024C59 1.00002 60.7 1.80002 61.7 3.20002C62.7 4.60002 63.1 6.40002 62.6 8.30002C62.2 10.2 61 11.9 59.3 13.2Z" fill="#434343"/>
<path d="M51.7 7.20001L53 6.20001L54.6 8.50001C54.9 8.90001 55.1 9.30001 55.2 9.70001C55.3 10 55.3 10.4 55.1 10.7C54.9 11.1 54.7 11.4 54.3 11.7C53.9 12 53.5 12.2 53.2 12.2C52.9 12.3 52.6 12.2 52.3 12.1C52 11.9 51.7 11.7 51.5 11.4L52.6 10.4C52.7 10.5 52.8 10.7 52.9 10.8C53 10.9 53.1 10.9 53.2 10.9C53.3 10.9 53.4 10.9 53.4 10.8C53.5 10.7 53.6 10.6 53.6 10.4C53.6 10.2 53.5 10 53.3 9.80001L51.7 7.20001ZM55.6 8.60001L56.8 7.70001C56.9 7.90001 57.1 8.00001 57.3 8.00001C57.6 8.10001 57.8 8.00001 58.1 7.90001C58.3 7.80001 58.4 7.70001 58.4 7.50001C58.5 7.30001 58.3 7.00001 58.1 6.90001H58C57.8 6.90001 57.6 7.00001 57.2 7.10001C56.5 7.40001 56 7.50001 55.6 7.40001C55.2 7.40001 54.9 7.20001 54.7 6.80001C54.5 6.60001 54.5 6.30001 54.5 6.10001C54.5 5.80001 54.6 5.50001 54.7 5.20001C54.9 4.80001 55.2 4.50001 55.6 4.30001C56.1 3.90001 56.6 3.70001 57.1 3.70001C57.5 3.70001 57.9 3.90001 58.3 4.30001L57 5.30001C56.8 5.00001 56.3 4.90001 56 5.20001C55.9 5.30001 55.8 5.40001 55.7 5.50001C55.7 5.60001 55.7 5.70001 55.8 5.80001C55.8 5.90001 55.9 6.00001 55.9 6.00001C56 6.00001 56.2 6.00001 56.4 5.80001C57.1 5.50001 57.6 5.40001 57.9 5.30001C58.2 5.20001 58.5 5.30001 58.8 5.40001C59 5.50001 59.3 5.70001 59.4 5.90001C59.6 6.20001 59.7 6.50001 59.7 6.80001C59.7 7.10001 59.6 7.50001 59.4 7.80001C59.2 8.20001 58.9 8.50001 58.5 8.70001C57.8 9.20001 57.2 9.40001 56.7 9.30001C56.3 9.20001 55.9 9.00001 55.6 8.60001Z" fill="#434343"/>
<path d="M48.1 7.8C48.1 7.6 48.2 7.4 48.2 7.3C48.1 7 48 6.7 47.8 6.4C47.5 5.9 47 5.5 46.3 5.1C45.6 4.7 44.5 4.4 42.9 4.1C42.3 4 41.9 3.8 41.7 3.7C41.5 3.6 41.4 3.4 41.4 3.2C41.4 2.9 41.5 2.7 41.7 2.5C41.9 2.3 42.2 2.2 42.6 2.2C43.1 2.2 43.5 2.3 43.8 2.6C44.1 2.8 44.3 3.2 44.4 3.8L47.8 3.6C47.7 2.4 47.2 1.5 46.4 0.9C45.7 0.3 44.6 0 43.1 0C41.9 0 40.9 0.2 40.2 0.5C39.6 0.7 39 1.2 38.6 1.8C38.3 2.3 38.1 2.9 38.1 3.5C38.1 4.4 38.5 5.2 39.1 5.8C39.8 6.4 40.9 6.9 42.5 7.2C43.5 7.4 44.1 7.6 44.3 7.9C44.5 8.1 44.7 8.4 44.7 8.7C44.7 9 44.5 9.3 44.3 9.5C44 9.7 43.6 9.9 43.1 9.9C42.4 9.9 41.9 9.7 41.5 9.2C41.3 8.9 41.1 8.5 41 7.9L37.7 8C37.8 9.2 38.2 10.1 39 10.9C39.8 11.7 41.1 12.1 43.1 12.1C44.2 12.1 45.2 11.9 45.9 11.6C46.6 11.3 47.2 10.8 47.6 10.2C47.7 10.1 47.7 10 47.8 9.9C47.8 9.2 47.9 8.5 48.1 7.8Z" fill="#434343"/>
<path d="M62.2 15.5C61.2 14.5 59.9 14 58.2 13.9C56.8 14.7 55.2 15.1 53.7 15.1C53.5 15.2 53.4 15.4 53.2 15.5C52.1 16.6 51.6 18.1 51.6 20C51.6 21.4 51.9 22.5 52.4 23.4C52.9 24.3 53.6 24.9 54.5 25.4C55.4 25.8 56.4 26 57.8 26C59.1 26 60.2 25.8 61.1 25.3C62 24.8 62.6 24.1 63.1 23.3C63.6 22.4 63.8 21.3 63.8 19.9C63.8 18 63.2 16.5 62.2 15.5ZM59.5 22.5C59.1 23 58.5 23.3 57.7 23.3C56.9 23.3 56.3 23 55.9 22.5C55.5 22 55.2 21.1 55.2 19.9C55.2 18.7 55.4 17.9 55.9 17.3C56.3 16.8 57 16.5 57.7 16.5C58.5 16.5 59.1 16.7 59.5 17.3C59.9 17.8 60.2 18.6 60.2 19.7C60.2 21.1 59.9 22 59.5 22.5Z" fill="#434343"/>
</svg>
